<?xml version="1.0" encoding="utf-8"?>
<!-- Generator: Adobe Illustrator 21.1.0, SVG Export Plug-In . SVG Version: 6.00 Build 0)  -->
<svg version="1.1" id="Capa_1" xmlns="http://www.w3.org/2000/svg" xmlns:xlink="http://www.w3.org/1999/xlink" x="0px" y="0px"
	 viewBox="0 0 504.9 504.9" style="enable-background:new 0 0 504.9 504.9;" xml:space="preserve">
<style type="text/css">
	.st0{fill:url(#SVGID_1_);}
	.st1{fill:url(#SVGID_2_);}
	.st2{fill:url(#SVGID_3_);}
	.st3{fill:url(#SVGID_4_);}
	.st4{fill:url(#SVGID_5_);}
	.st5{fill:none;stroke:#000000;stroke-width:1.2865;stroke-miterlimit:10;}
	.st6{fill:url(#SVGID_6_);}
	.st7{fill:url(#SVGID_7_);}
	.st8{fill:url(#SVGID_8_);}
	.st9{fill:url(#SVGID_9_);}
	.st10{fill:url(#SVGID_10_);}
	.st11{fill:url(#SVGID_11_);}
</style>
<title>logo</title>
<g>
	<g>
		<g>
			
				<linearGradient id="SVGID_1_" gradientUnits="userSpaceOnUse" x1="-37.7717" y1="604.6044" x2="7.4972" y2="604.6044" gradientTransform="matrix(1 0 0 1 135.2036 -379.1765)">
				<stop  offset="0" style="stop-color:#353386"/>
				<stop  offset="1" style="stop-color:#1EAA39"/>
			</linearGradient>
			<path class="st0" d="M119.1,252.4c0-28.1,8.7-54.1,23.6-75.6l0-0.1l-41.4,41.4c-2.5,11-3.9,22.5-3.9,34.3
				c0,7.4,0.5,14.6,1.5,21.7l20.2-20.2l0.1-0.1C119.1,253.4,119.1,252.9,119.1,252.4z"/>
			
				<linearGradient id="SVGID_2_" gradientUnits="userSpaceOnUse" x1="-97.3283" y1="615.7065" x2="-68.0318" y2="615.7065" gradientTransform="matrix(1 0 0 1 135.2036 -379.1765)">
				<stop  offset="0" style="stop-color:#353386"/>
				<stop  offset="1" style="stop-color:#1EAA39"/>
			</linearGradient>
			<path class="st1" d="M59.5,252.5c0-18.6,2.7-36.6,7.6-53.6l0-0.1l-27.6,27.6c-1.1,8.6-1.7,17.3-1.7,26.1c0,7.4,0.4,14.7,1.1,21.9
				l20.6-20.5l0,0C59.6,253.3,59.5,252.9,59.5,252.5z"/>
			
				<linearGradient id="SVGID_3_" gradientUnits="userSpaceOnUse" x1="-135.2036" y1="516.3513" x2="138.8994" y2="516.3513" gradientTransform="matrix(1 0 0 1 135.2036 -379.1765)">
				<stop  offset="0" style="stop-color:#1EAA39"/>
				<stop  offset="1" style="stop-color:#353386"/>
			</linearGradient>
			<path class="st2" d="M274.1,0.9C267,0.3,259.7,0,252.4,0C113.2,0,0,113.2,0,252.4c0,7.3,0.3,14.5,0.9,21.7l38.1,0.2
				c-0.7-7.2-1.1-14.5-1.1-21.9c0-118.3,96.3-214.6,214.6-214.6c7.3,0,14.5,0.4,21.6,1.1L274.1,0.9z"/>
			
				<linearGradient id="SVGID_4_" gradientUnits="userSpaceOnUse" x1="-75.6726" y1="545.997" x2="138.9054" y2="545.997" gradientTransform="matrix(1 0 0 1 135.2036 -379.1765)">
				<stop  offset="0" style="stop-color:#1EAA39"/>
				<stop  offset="1" style="stop-color:#353386"/>
			</linearGradient>
			<path class="st3" d="M274.1,60.7c-7.1-0.8-14.3-1.2-21.7-1.2c-106.4,0-192.9,86.5-192.9,192.9c0,7.3,0.4,14.5,1.2,21.7h38.2
				c-1-7.1-1.5-14.3-1.5-21.7c0-85.5,69.5-155,155-155c7.3,0,14.6,0.5,21.7,1.5V60.7z"/>
			
				<linearGradient id="SVGID_5_" gradientUnits="userSpaceOnUse" x1="-16.1245" y1="575.7719" x2="138.9054" y2="575.7719" gradientTransform="matrix(1 0 0 1 135.2036 -379.1765)">
				<stop  offset="0" style="stop-color:#1EAA39"/>
				<stop  offset="1" style="stop-color:#353386"/>
			</linearGradient>
			<path class="st4" d="M274.1,120.8c-7-1.1-14.3-1.7-21.7-1.7c-73.5,0-133.4,59.8-133.4,133.4c0,7.1,0.6,14.1,1.6,20.9l38.7,0.7
				c-1.6-7-2.5-14.2-2.5-21.7c0-52.7,42.8-95.5,95.5-95.5c7.4,0,14.7,0.8,21.7,2.5L274.1,120.8z"/>
			<path class="st5" d="M60.7,274.1"/>
			<path class="st5" d="M120.7,273.4"/>
		</g>
		<g>
			
				<linearGradient id="SVGID_6_" gradientUnits="userSpaceOnUse" x1="227.003" y1="658.7761" x2="272.2646" y2="658.7761" gradientTransform="matrix(1 0 0 1 135.2036 -379.1765)">
				<stop  offset="0" style="stop-color:#353386"/>
				<stop  offset="1" style="stop-color:#9C4C84"/>
			</linearGradient>
			<path class="st6" d="M385.8,252.6c0,28.1-8.7,54.1-23.6,75.6v0.1l41.4-41.4c2.5-11,3.9-22.5,3.9-34.3c0-7.3-0.5-14.6-1.5-21.7
				l-20.2,20.2l0,0.1C385.8,251.6,385.8,252.1,385.8,252.6z"/>
			
				<linearGradient id="SVGID_7_" gradientUnits="userSpaceOnUse" x1="302.5335" y1="647.6714" x2="331.8059" y2="647.6714" gradientTransform="matrix(1 0 0 1 135.2036 -379.1765)">
				<stop  offset="0" style="stop-color:#353386"/>
				<stop  offset="1" style="stop-color:#9C4C84"/>
			</linearGradient>
			<path class="st7" d="M445.4,252.6c0,18.6-2.7,36.6-7.6,53.6l0,0.1l27.6-27.6c1-8.6,1.6-17.3,1.6-26.1c0-7.4-0.4-14.7-1.1-21.9
				l-20.5,20.5l0,0.1C445.3,251.7,445.4,252.1,445.4,252.6z"/>
			
				<linearGradient id="SVGID_8_" gradientUnits="userSpaceOnUse" x1="95.5934" y1="747.0247" x2="369.6964" y2="747.0247" gradientTransform="matrix(1 0 0 1 135.2036 -379.1765)">
				<stop  offset="0" style="stop-color:#353386"/>
				<stop  offset="1" style="stop-color:#9C4C84"/>
			</linearGradient>
			<path class="st8" d="M230.8,504.1c7.1,0.6,14.4,0.9,21.7,0.9c139.2,0,252.5-113.3,252.5-252.5c0-7.3-0.3-14.5-0.9-21.7l-38.1-0.2
				c0.7,7.2,1.1,14.5,1.1,21.9c0,118.3-96.3,214.6-214.6,214.6c-7.3,0-14.5-0.4-21.7-1.1V504.1z"/>
			
				<linearGradient id="SVGID_9_" gradientUnits="userSpaceOnUse" x1="95.5776" y1="717.382" x2="310.1653" y2="717.382" gradientTransform="matrix(1 0 0 1 135.2036 -379.1765)">
				<stop  offset="0" style="stop-color:#353386"/>
				<stop  offset="1" style="stop-color:#9C4C84"/>
			</linearGradient>
			<path class="st9" d="M230.8,444.3c7.1,0.8,14.3,1.2,21.7,1.2c106.4,0,192.9-86.6,192.9-192.9c0-7.3-0.4-14.6-1.2-21.7H406
				c1,7.1,1.5,14.3,1.5,21.7c0,85.5-69.5,155-155,155c-7.3,0-14.6-0.5-21.7-1.5L230.8,444.3z"/>
			
				<linearGradient id="SVGID_10_" gradientUnits="userSpaceOnUse" x1="95.5776" y1="687.6116" x2="250.6247" y2="687.6116" gradientTransform="matrix(1 0 0 1 135.2036 -379.1765)">
				<stop  offset="0" style="stop-color:#353386"/>
				<stop  offset="1" style="stop-color:#9C4C84"/>
			</linearGradient>
			<path class="st10" d="M230.8,384.2c7,1.1,14.3,1.7,21.7,1.8c73.5,0,133.4-59.8,133.4-133.4c0-7.1-0.6-14.1-1.7-20.9l-38.7-0.7
				c1.6,7,2.5,14.2,2.5,21.6c0,52.7-42.8,95.5-95.5,95.5c-7.5,0-14.7-0.9-21.7-2.5L230.8,384.2z"/>
		</g>
	</g>
	<linearGradient id="SVGID_11_" gradientUnits="userSpaceOnUse" x1="61.0401" y1="310.0455" x2="328.7792" y2="310.0455">
		<stop  offset="0" style="stop-color:#1EAA39"/>
		<stop  offset="1" style="stop-color:#353386"/>
	</linearGradient>
	<path class="st11" d="M252.5,176.2c-42.2,0-76.3,34.2-76.3,76.3c0,14.2,3.9,27.4,10.7,38.8L61,417.1c8.2,9.6,17.2,18.5,26.8,26.8
		l125.8-125.8c11.4,6.8,24.6,10.7,38.8,10.7c42.2,0,76.3-34.2,76.3-76.3C328.8,210.3,294.6,176.2,252.5,176.2z M252.4,290.9
		c-21.2,0-38.4-17.2-38.4-38.4c0-21.2,17.2-38.4,38.4-38.4c21.2,0,38.5,17.2,38.4,38.4C290.9,273.7,273.6,291,252.4,290.9z"/>
</g>
</svg>
