<svg id="主體" xmlns="http://www.w3.org/2000/svg" viewBox="0 0 335.36 90.61"><defs><style>.cls-1{fill:#fff;}</style></defs><title>logo</title><polygon class="cls-1" points="240.98 16.99 26.32 16.99 16.99 16.99 16.99 26.32 16.99 72.99 26.32 72.99 26.32 26.32 240.98 26.32 240.98 16.99"/><rect class="cls-1" x="93.54" y="36.35" width="9.83" height="35.99" transform="translate(21.22 -27.39) rotate(17.72)"/><circle class="cls-1" cx="57.43" cy="60.54" r="12.44"/><path class="cls-1" d="M318.37,62.31v1.32H295.76V62.31H306V61h-8.29V59.8H306V58.5h-7.68V57.34H306v-1.4H295.81V54.75H306V53.46h-7.53V52.29H306V50.72h1.87v1.57h7.69v2.46h2.73v1.19h-2.73V58.5h-7.69v1.3h8.67V61h-8.67v1.32Zm-22.61,9.5h22.61v1.35H295.76Zm19.85-7.07v5.88H298.32V64.74Zm-15.49,2.38h5.95V65.83h-5.95Zm0,2.41h5.95V68.19h-5.95Zm13.59-3.7h-5.89v1.29h5.89Zm0,2.36h-5.89v1.34h5.89Zm-5.84-13.44h5.81V53.46h-5.81Zm0,2.59h5.81v-1.4h-5.81Z"/><path class="cls-1" d="M280.7,19.57h-3c.31-1,.43-1.23.68-2.18l-1.72-.33c-.17.86-.42,1.7-.65,2.51h-2v9.58h6.62ZM279,27.68h-3.3V25H279Zm0-4h-3.3V21H279Z"/><path class="cls-1" d="M268,26.59c-.63.76-1.09,1.29-1.54,1.39l.47,1.38,4.92-.78.26,0c.1.48.13.94.18,1.29l1.37-.35a31,31,0,0,0-.94-4.26l-1.29.33c.15.53.28,1.14.43,1.72l-3.1.41a41.31,41.31,0,0,0,4.69-6.85L272,20.07c-.41.84-.86,1.68-1.32,2.51l-2.14.21h0a27.83,27.83,0,0,0,2.58-5l-1.49-.59a22.34,22.34,0,0,1-2.21,4.8,2.24,2.24,0,0,1-.87,1h-.13l.49,1.44,2.89-.44h0C269,25.22,268.3,26.18,268,26.59Z"/><polygon class="cls-1" points="278.32 29.99 276.44 29.99 276.44 31.3 266.12 31.3 266.12 32.9 276.44 32.9 276.44 40.25 278.32 40.25 278.32 32.9 288.63 32.9 288.63 31.3 278.32 31.3 278.32 29.99"/><path class="cls-1" d="M279.93,34.78a46.24,46.24,0,0,1,7.5,4.84l1.17-1.42a53.38,53.38,0,0,0-7.53-4.66Z"/><path class="cls-1" d="M284.25,24.23h0l.53-.07c-.83,1.26-1.57,2.25-1.9,2.66-.59.76-1.07,1.28-1.51,1.4h-.09l.24,1.36,3.33-.42L287,28.9c.1.43.2.81.25,1.16l1.34-.45a39,39,0,0,0-1.16-4L286.2,26c.15.48.31,1,.48,1.6l-3,.33a43.44,43.44,0,0,0,4.64-6.85l-1.4-.78c-.38.81-.78,1.59-1.24,2.38l-2.46.28a34,34,0,0,0,2.61-5.3l-1.52-.51a23.31,23.31,0,0,1-2.23,5c-.36.58-.66,1-1,1.06l.45,1.4Z"/><path class="cls-1" d="M273.47,33.71s-2.34,2.77-7.82,4.24l1.2,1.52s5.13-1.46,8.24-5.1Z"/><path class="cls-1" d="M315.61,39.43V29.8H298.52v9.63ZM300.42,31.6h13.21v6H300.42Z"/><path class="cls-1" d="M301.4,27.06c2.31-.09,6.33-.28,13.72-.69a17.4,17.4,0,0,1,1.5,2.13l1.6-1.14a40.8,40.8,0,0,0-6.7-7.36L310,21a50.21,50.21,0,0,1,3.68,3.74l-12.84.62a54.39,54.39,0,0,0,6.39-7.45L305.41,17a42.13,42.13,0,0,1-5.84,7.16,7.86,7.86,0,0,1-1.56,1.3h-.75l.59,1.73,3.55-.16Z"/><polygon class="cls-1" points="283.4 59.19 283.4 50.93 281.5 50.93 281.5 59.19 276.53 59.19 276.53 61.04 281.5 61.04 281.5 73.62 283.4 73.62 283.4 61.04 288.6 61.04 288.6 59.19 283.4 59.19"/><path class="cls-1" d="M267.29,65.64V73h8.23v-7.3Zm1.65,1.57h4.9v4.16h-4.9Z"/><rect class="cls-1" x="267.28" y="61.94" width="8.24" height="1.56"/><rect class="cls-1" x="267.28" y="58.35" width="8.24" height="1.56"/><rect class="cls-1" x="268.94" y="51.15" width="6.58" height="1.56"/><rect class="cls-1" x="266.16" y="54.76" width="9.35" height="1.55"/></svg>